<mxfile host="Electron" agent="Mozilla/5.0 (Windows NT 10.0; Win64; x64) AppleWebKit/537.36 (KHTML, like Gecko) draw.io/26.2.15 Chrome/134.0.6998.205 Electron/35.2.1 Safari/537.36" version="26.2.15">
  <diagram name="Seite-1" id="sCLFebnK6MwUjcyOXUIV">
    <mxGraphModel dx="1028" dy="715" grid="1" gridSize="10" guides="1" tooltips="1" connect="1" arrows="1" fold="1" page="1" pageScale="1" pageWidth="827" pageHeight="1169" math="0" shadow="0">
      <root>
        <mxCell id="0" />
        <mxCell id="1" parent="0" />
        <mxCell id="GOQLkLl-hS0VJN9ZCnfr-1" value="" style="ellipse;whiteSpace=wrap;html=1;aspect=fixed;fillColor=none;" vertex="1" parent="1">
          <mxGeometry x="120" y="200" width="160" height="160" as="geometry" />
        </mxCell>
        <mxCell id="GOQLkLl-hS0VJN9ZCnfr-15" value="" style="ellipse;whiteSpace=wrap;html=1;aspect=fixed;fillColor=none;" vertex="1" parent="1">
          <mxGeometry x="136.25" y="216.25" width="127.5" height="127.5" as="geometry" />
        </mxCell>
        <mxCell id="GOQLkLl-hS0VJN9ZCnfr-3" value="" style="ellipse;whiteSpace=wrap;html=1;aspect=fixed;fillColor=#00FFFF;" vertex="1" parent="1">
          <mxGeometry x="160" y="240" width="20" height="20" as="geometry" />
        </mxCell>
        <mxCell id="GOQLkLl-hS0VJN9ZCnfr-8" value="" style="ellipse;whiteSpace=wrap;html=1;aspect=fixed;fillColor=#00FFFF;" vertex="1" parent="1">
          <mxGeometry x="178" y="249" width="20" height="20" as="geometry" />
        </mxCell>
        <mxCell id="GOQLkLl-hS0VJN9ZCnfr-9" value="" style="ellipse;whiteSpace=wrap;html=1;aspect=fixed;fillColor=light-dark(#FFFFFF,#663300);" vertex="1" parent="1">
          <mxGeometry x="220" y="300" width="20" height="20" as="geometry" />
        </mxCell>
        <mxCell id="GOQLkLl-hS0VJN9ZCnfr-10" value="" style="ellipse;whiteSpace=wrap;html=1;aspect=fixed;fillColor=light-dark(#FFFFFF,#663300);" vertex="1" parent="1">
          <mxGeometry x="202" y="290" width="20" height="20" as="geometry" />
        </mxCell>
        <mxCell id="GOQLkLl-hS0VJN9ZCnfr-11" value="" style="ellipse;whiteSpace=wrap;html=1;aspect=fixed;fillColor=#80FF00;" vertex="1" parent="1">
          <mxGeometry x="160" y="300" width="20" height="20" as="geometry" />
        </mxCell>
        <mxCell id="GOQLkLl-hS0VJN9ZCnfr-12" value="" style="ellipse;whiteSpace=wrap;html=1;aspect=fixed;fillColor=#80FF00;" vertex="1" parent="1">
          <mxGeometry x="169" y="282" width="20" height="20" as="geometry" />
        </mxCell>
        <mxCell id="GOQLkLl-hS0VJN9ZCnfr-13" value="" style="ellipse;whiteSpace=wrap;html=1;aspect=fixed;fillColor=#CC6600;" vertex="1" parent="1">
          <mxGeometry x="212" y="260" width="20" height="20" as="geometry" />
        </mxCell>
        <mxCell id="GOQLkLl-hS0VJN9ZCnfr-14" value="" style="ellipse;whiteSpace=wrap;html=1;aspect=fixed;fillColor=#CC6600;" vertex="1" parent="1">
          <mxGeometry x="221" y="242" width="20" height="20" as="geometry" />
        </mxCell>
        <mxCell id="GOQLkLl-hS0VJN9ZCnfr-16" value="" style="ellipse;whiteSpace=wrap;html=1;aspect=fixed;fillColor=#990000;strokeColor=#990000;" vertex="1" parent="1">
          <mxGeometry x="165" y="245" width="10" height="10" as="geometry" />
        </mxCell>
        <mxCell id="GOQLkLl-hS0VJN9ZCnfr-17" value="" style="verticalLabelPosition=bottom;verticalAlign=top;html=1;shape=mxgraph.basic.pie;startAngle=0.375;endAngle=0.8738870465116885;fillColor=#FFFFFF;rotation=-135;" vertex="1" parent="1">
          <mxGeometry x="178" y="249" width="20" height="20" as="geometry" />
        </mxCell>
        <mxCell id="GOQLkLl-hS0VJN9ZCnfr-21" value="" style="verticalLabelPosition=bottom;verticalAlign=top;html=1;shape=mxgraph.basic.pie;startAngle=0.375;endAngle=0.8738870465116885;fillColor=#FFFFFF;rotation=-135;" vertex="1" parent="1">
          <mxGeometry x="212" y="260" width="20" height="20" as="geometry" />
        </mxCell>
        <mxCell id="GOQLkLl-hS0VJN9ZCnfr-22" value="" style="ellipse;whiteSpace=wrap;html=1;aspect=fixed;fillColor=#990000;strokeColor=#990000;" vertex="1" parent="1">
          <mxGeometry x="183" y="254" width="10" height="10" as="geometry" />
        </mxCell>
        <mxCell id="GOQLkLl-hS0VJN9ZCnfr-23" value="" style="ellipse;whiteSpace=wrap;html=1;aspect=fixed;fillColor=#990000;strokeColor=#990000;" vertex="1" parent="1">
          <mxGeometry x="226" y="247" width="10" height="10" as="geometry" />
        </mxCell>
        <mxCell id="GOQLkLl-hS0VJN9ZCnfr-24" value="" style="ellipse;whiteSpace=wrap;html=1;aspect=fixed;fillColor=#990000;strokeColor=#990000;" vertex="1" parent="1">
          <mxGeometry x="217" y="265" width="10" height="10" as="geometry" />
        </mxCell>
        <mxCell id="GOQLkLl-hS0VJN9ZCnfr-25" value="" style="ellipse;whiteSpace=wrap;html=1;aspect=fixed;fillColor=#990000;strokeColor=#990000;" vertex="1" parent="1">
          <mxGeometry x="165" y="305" width="10" height="10" as="geometry" />
        </mxCell>
        <mxCell id="GOQLkLl-hS0VJN9ZCnfr-26" value="" style="verticalLabelPosition=bottom;verticalAlign=top;html=1;shape=mxgraph.basic.pie;startAngle=0.375;endAngle=0.8738870465116885;fillColor=#FFFFFF;rotation=-135;" vertex="1" parent="1">
          <mxGeometry x="169" y="282" width="20" height="20" as="geometry" />
        </mxCell>
        <mxCell id="GOQLkLl-hS0VJN9ZCnfr-27" value="" style="verticalLabelPosition=bottom;verticalAlign=top;html=1;shape=mxgraph.basic.pie;startAngle=0.375;endAngle=0.8738870465116885;fillColor=#FFFFFF;rotation=-135;" vertex="1" parent="1">
          <mxGeometry x="202" y="290" width="20" height="20" as="geometry" />
        </mxCell>
        <mxCell id="GOQLkLl-hS0VJN9ZCnfr-28" value="" style="ellipse;whiteSpace=wrap;html=1;aspect=fixed;fillColor=#990000;strokeColor=#990000;" vertex="1" parent="1">
          <mxGeometry x="174" y="287" width="10" height="10" as="geometry" />
        </mxCell>
        <mxCell id="GOQLkLl-hS0VJN9ZCnfr-29" value="" style="ellipse;whiteSpace=wrap;html=1;aspect=fixed;fillColor=#990000;strokeColor=#990000;" vertex="1" parent="1">
          <mxGeometry x="207" y="295" width="10" height="10" as="geometry" />
        </mxCell>
        <mxCell id="GOQLkLl-hS0VJN9ZCnfr-30" value="" style="ellipse;whiteSpace=wrap;html=1;aspect=fixed;fillColor=#990000;strokeColor=#990000;" vertex="1" parent="1">
          <mxGeometry x="225" y="305" width="10" height="10" as="geometry" />
        </mxCell>
        <mxCell id="GOQLkLl-hS0VJN9ZCnfr-77" value="" style="endArrow=none;html=1;rounded=0;" edge="1" parent="1">
          <mxGeometry width="50" height="50" relative="1" as="geometry">
            <mxPoint x="231" y="252" as="sourcePoint" />
            <mxPoint x="300" y="230" as="targetPoint" />
          </mxGeometry>
        </mxCell>
        <mxCell id="GOQLkLl-hS0VJN9ZCnfr-78" value="Kupferleiter" style="text;html=1;align=center;verticalAlign=middle;resizable=0;points=[];autosize=1;strokeColor=none;fillColor=none;" vertex="1" parent="1">
          <mxGeometry x="293" y="211" width="80" height="30" as="geometry" />
        </mxCell>
        <mxCell id="GOQLkLl-hS0VJN9ZCnfr-79" value="" style="endArrow=none;html=1;rounded=0;exitX=0.863;exitY=0.628;exitDx=0;exitDy=0;exitPerimeter=0;" edge="1" parent="1">
          <mxGeometry width="50" height="50" relative="1" as="geometry">
            <mxPoint x="238.26000000000005" y="252.56" as="sourcePoint" />
            <mxPoint x="300" y="248" as="targetPoint" />
          </mxGeometry>
        </mxCell>
        <mxCell id="GOQLkLl-hS0VJN9ZCnfr-80" value="Adernisolierung" style="text;html=1;align=center;verticalAlign=middle;resizable=0;points=[];autosize=1;strokeColor=none;fillColor=none;" vertex="1" parent="1">
          <mxGeometry x="290" y="231" width="110" height="30" as="geometry" />
        </mxCell>
        <mxCell id="GOQLkLl-hS0VJN9ZCnfr-81" value="" style="endArrow=none;html=1;rounded=0;" edge="1" parent="1">
          <mxGeometry width="50" height="50" relative="1" as="geometry">
            <mxPoint x="230" y="271" as="sourcePoint" />
            <mxPoint x="300" y="270" as="targetPoint" />
          </mxGeometry>
        </mxCell>
        <mxCell id="GOQLkLl-hS0VJN9ZCnfr-82" value="" style="endArrow=none;html=1;rounded=0;" edge="1" parent="1">
          <mxGeometry width="50" height="50" relative="1" as="geometry">
            <mxPoint x="241" y="254.5" as="sourcePoint" />
            <mxPoint x="300" y="270" as="targetPoint" />
          </mxGeometry>
        </mxCell>
        <mxCell id="GOQLkLl-hS0VJN9ZCnfr-83" value="Paar" style="text;html=1;align=left;verticalAlign=middle;resizable=0;points=[];autosize=1;strokeColor=none;fillColor=none;" vertex="1" parent="1">
          <mxGeometry x="300" y="252" width="50" height="30" as="geometry" />
        </mxCell>
        <mxCell id="GOQLkLl-hS0VJN9ZCnfr-84" value="" style="endArrow=none;html=1;rounded=0;" edge="1" parent="1">
          <mxGeometry width="50" height="50" relative="1" as="geometry">
            <mxPoint x="270" y="287" as="sourcePoint" />
            <mxPoint x="300" y="287" as="targetPoint" />
          </mxGeometry>
        </mxCell>
        <mxCell id="GOQLkLl-hS0VJN9ZCnfr-85" value="Kabelmantel" style="text;html=1;align=left;verticalAlign=middle;resizable=0;points=[];autosize=1;strokeColor=none;fillColor=none;" vertex="1" parent="1">
          <mxGeometry x="300" y="272" width="90" height="30" as="geometry" />
        </mxCell>
        <mxCell id="GOQLkLl-hS0VJN9ZCnfr-86" value="" style="ellipse;whiteSpace=wrap;html=1;aspect=fixed;fillColor=none;" vertex="1" parent="1">
          <mxGeometry x="400" y="200" width="160" height="160" as="geometry" />
        </mxCell>
        <mxCell id="GOQLkLl-hS0VJN9ZCnfr-87" value="" style="ellipse;whiteSpace=wrap;html=1;aspect=fixed;fillColor=none;" vertex="1" parent="1">
          <mxGeometry x="416.25" y="216.25" width="127.5" height="127.5" as="geometry" />
        </mxCell>
        <mxCell id="GOQLkLl-hS0VJN9ZCnfr-88" value="" style="ellipse;whiteSpace=wrap;html=1;aspect=fixed;fillColor=#00FFFF;" vertex="1" parent="1">
          <mxGeometry x="440" y="240" width="20" height="20" as="geometry" />
        </mxCell>
        <mxCell id="GOQLkLl-hS0VJN9ZCnfr-89" value="" style="ellipse;whiteSpace=wrap;html=1;aspect=fixed;fillColor=#00FFFF;" vertex="1" parent="1">
          <mxGeometry x="458" y="249" width="20" height="20" as="geometry" />
        </mxCell>
        <mxCell id="GOQLkLl-hS0VJN9ZCnfr-90" value="" style="ellipse;whiteSpace=wrap;html=1;aspect=fixed;fillColor=light-dark(#FFFFFF,#663300);" vertex="1" parent="1">
          <mxGeometry x="500" y="300" width="20" height="20" as="geometry" />
        </mxCell>
        <mxCell id="GOQLkLl-hS0VJN9ZCnfr-91" value="" style="ellipse;whiteSpace=wrap;html=1;aspect=fixed;fillColor=light-dark(#FFFFFF,#663300);" vertex="1" parent="1">
          <mxGeometry x="482" y="290" width="20" height="20" as="geometry" />
        </mxCell>
        <mxCell id="GOQLkLl-hS0VJN9ZCnfr-92" value="" style="ellipse;whiteSpace=wrap;html=1;aspect=fixed;fillColor=#80FF00;" vertex="1" parent="1">
          <mxGeometry x="440" y="300" width="20" height="20" as="geometry" />
        </mxCell>
        <mxCell id="GOQLkLl-hS0VJN9ZCnfr-93" value="" style="ellipse;whiteSpace=wrap;html=1;aspect=fixed;fillColor=#80FF00;" vertex="1" parent="1">
          <mxGeometry x="449" y="282" width="20" height="20" as="geometry" />
        </mxCell>
        <mxCell id="GOQLkLl-hS0VJN9ZCnfr-94" value="" style="ellipse;whiteSpace=wrap;html=1;aspect=fixed;fillColor=#CC6600;" vertex="1" parent="1">
          <mxGeometry x="492" y="260" width="20" height="20" as="geometry" />
        </mxCell>
        <mxCell id="GOQLkLl-hS0VJN9ZCnfr-95" value="" style="ellipse;whiteSpace=wrap;html=1;aspect=fixed;fillColor=#CC6600;" vertex="1" parent="1">
          <mxGeometry x="501" y="242" width="20" height="20" as="geometry" />
        </mxCell>
        <mxCell id="GOQLkLl-hS0VJN9ZCnfr-96" value="" style="ellipse;whiteSpace=wrap;html=1;aspect=fixed;fillColor=#990000;strokeColor=#990000;" vertex="1" parent="1">
          <mxGeometry x="445" y="245" width="10" height="10" as="geometry" />
        </mxCell>
        <mxCell id="GOQLkLl-hS0VJN9ZCnfr-97" value="" style="verticalLabelPosition=bottom;verticalAlign=top;html=1;shape=mxgraph.basic.pie;startAngle=0.375;endAngle=0.8738870465116885;fillColor=#FFFFFF;rotation=-135;" vertex="1" parent="1">
          <mxGeometry x="458" y="249" width="20" height="20" as="geometry" />
        </mxCell>
        <mxCell id="GOQLkLl-hS0VJN9ZCnfr-98" value="" style="verticalLabelPosition=bottom;verticalAlign=top;html=1;shape=mxgraph.basic.pie;startAngle=0.375;endAngle=0.8738870465116885;fillColor=#FFFFFF;rotation=-135;" vertex="1" parent="1">
          <mxGeometry x="492" y="260" width="20" height="20" as="geometry" />
        </mxCell>
        <mxCell id="GOQLkLl-hS0VJN9ZCnfr-99" value="" style="ellipse;whiteSpace=wrap;html=1;aspect=fixed;fillColor=#990000;strokeColor=#990000;" vertex="1" parent="1">
          <mxGeometry x="463" y="254" width="10" height="10" as="geometry" />
        </mxCell>
        <mxCell id="GOQLkLl-hS0VJN9ZCnfr-100" value="" style="ellipse;whiteSpace=wrap;html=1;aspect=fixed;fillColor=#990000;strokeColor=#990000;" vertex="1" parent="1">
          <mxGeometry x="506" y="247" width="10" height="10" as="geometry" />
        </mxCell>
        <mxCell id="GOQLkLl-hS0VJN9ZCnfr-101" value="" style="ellipse;whiteSpace=wrap;html=1;aspect=fixed;fillColor=#990000;strokeColor=#990000;" vertex="1" parent="1">
          <mxGeometry x="497" y="265" width="10" height="10" as="geometry" />
        </mxCell>
        <mxCell id="GOQLkLl-hS0VJN9ZCnfr-102" value="" style="ellipse;whiteSpace=wrap;html=1;aspect=fixed;fillColor=#990000;strokeColor=#990000;" vertex="1" parent="1">
          <mxGeometry x="445" y="305" width="10" height="10" as="geometry" />
        </mxCell>
        <mxCell id="GOQLkLl-hS0VJN9ZCnfr-103" value="" style="verticalLabelPosition=bottom;verticalAlign=top;html=1;shape=mxgraph.basic.pie;startAngle=0.375;endAngle=0.8738870465116885;fillColor=#FFFFFF;rotation=-135;" vertex="1" parent="1">
          <mxGeometry x="449" y="282" width="20" height="20" as="geometry" />
        </mxCell>
        <mxCell id="GOQLkLl-hS0VJN9ZCnfr-104" value="" style="verticalLabelPosition=bottom;verticalAlign=top;html=1;shape=mxgraph.basic.pie;startAngle=0.375;endAngle=0.8738870465116885;fillColor=#FFFFFF;rotation=-135;" vertex="1" parent="1">
          <mxGeometry x="482" y="290" width="20" height="20" as="geometry" />
        </mxCell>
        <mxCell id="GOQLkLl-hS0VJN9ZCnfr-105" value="" style="ellipse;whiteSpace=wrap;html=1;aspect=fixed;fillColor=#990000;strokeColor=#990000;" vertex="1" parent="1">
          <mxGeometry x="454" y="287" width="10" height="10" as="geometry" />
        </mxCell>
        <mxCell id="GOQLkLl-hS0VJN9ZCnfr-106" value="" style="ellipse;whiteSpace=wrap;html=1;aspect=fixed;fillColor=#990000;strokeColor=#990000;" vertex="1" parent="1">
          <mxGeometry x="487" y="295" width="10" height="10" as="geometry" />
        </mxCell>
        <mxCell id="GOQLkLl-hS0VJN9ZCnfr-107" value="" style="ellipse;whiteSpace=wrap;html=1;aspect=fixed;fillColor=#990000;strokeColor=#990000;" vertex="1" parent="1">
          <mxGeometry x="505" y="305" width="10" height="10" as="geometry" />
        </mxCell>
        <mxCell id="GOQLkLl-hS0VJN9ZCnfr-108" value="" style="endArrow=none;html=1;rounded=0;" edge="1" parent="1">
          <mxGeometry width="50" height="50" relative="1" as="geometry">
            <mxPoint x="511" y="252" as="sourcePoint" />
            <mxPoint x="580" y="230" as="targetPoint" />
          </mxGeometry>
        </mxCell>
        <mxCell id="GOQLkLl-hS0VJN9ZCnfr-109" value="Kupferleiter" style="text;html=1;align=center;verticalAlign=middle;resizable=0;points=[];autosize=1;strokeColor=none;fillColor=none;" vertex="1" parent="1">
          <mxGeometry x="573" y="211" width="80" height="30" as="geometry" />
        </mxCell>
        <mxCell id="GOQLkLl-hS0VJN9ZCnfr-110" value="" style="endArrow=none;html=1;rounded=0;exitX=0.863;exitY=0.628;exitDx=0;exitDy=0;exitPerimeter=0;" edge="1" parent="1">
          <mxGeometry width="50" height="50" relative="1" as="geometry">
            <mxPoint x="518.26" y="252.56" as="sourcePoint" />
            <mxPoint x="580" y="248" as="targetPoint" />
          </mxGeometry>
        </mxCell>
        <mxCell id="GOQLkLl-hS0VJN9ZCnfr-111" value="Adernisolierung" style="text;html=1;align=center;verticalAlign=middle;resizable=0;points=[];autosize=1;strokeColor=none;fillColor=none;" vertex="1" parent="1">
          <mxGeometry x="570" y="231" width="110" height="30" as="geometry" />
        </mxCell>
        <mxCell id="GOQLkLl-hS0VJN9ZCnfr-112" value="" style="endArrow=none;html=1;rounded=0;" edge="1" parent="1">
          <mxGeometry width="50" height="50" relative="1" as="geometry">
            <mxPoint x="510" y="271" as="sourcePoint" />
            <mxPoint x="580" y="270" as="targetPoint" />
          </mxGeometry>
        </mxCell>
        <mxCell id="GOQLkLl-hS0VJN9ZCnfr-113" value="" style="endArrow=none;html=1;rounded=0;" edge="1" parent="1">
          <mxGeometry width="50" height="50" relative="1" as="geometry">
            <mxPoint x="521" y="254.5" as="sourcePoint" />
            <mxPoint x="580" y="270" as="targetPoint" />
          </mxGeometry>
        </mxCell>
        <mxCell id="GOQLkLl-hS0VJN9ZCnfr-114" value="Paar" style="text;html=1;align=left;verticalAlign=middle;resizable=0;points=[];autosize=1;strokeColor=none;fillColor=none;" vertex="1" parent="1">
          <mxGeometry x="580" y="252" width="50" height="30" as="geometry" />
        </mxCell>
        <mxCell id="GOQLkLl-hS0VJN9ZCnfr-115" value="" style="endArrow=none;html=1;rounded=0;" edge="1" parent="1">
          <mxGeometry width="50" height="50" relative="1" as="geometry">
            <mxPoint x="550" y="287" as="sourcePoint" />
            <mxPoint x="580" y="287" as="targetPoint" />
          </mxGeometry>
        </mxCell>
        <mxCell id="GOQLkLl-hS0VJN9ZCnfr-116" value="Kabelmantel" style="text;html=1;align=left;verticalAlign=middle;resizable=0;points=[];autosize=1;strokeColor=none;fillColor=none;" vertex="1" parent="1">
          <mxGeometry x="580" y="272" width="90" height="30" as="geometry" />
        </mxCell>
        <mxCell id="GOQLkLl-hS0VJN9ZCnfr-117" value="" style="ellipse;whiteSpace=wrap;html=1;fillColor=none;rotation=30;" vertex="1" parent="1">
          <mxGeometry x="435.75" y="239.73" width="46.5" height="29" as="geometry" />
        </mxCell>
        <mxCell id="GOQLkLl-hS0VJN9ZCnfr-119" value="" style="ellipse;whiteSpace=wrap;html=1;fillColor=none;rotation=-240;" vertex="1" parent="1">
          <mxGeometry x="482.25" y="247" width="46.5" height="29" as="geometry" />
        </mxCell>
        <mxCell id="GOQLkLl-hS0VJN9ZCnfr-120" value="" style="ellipse;whiteSpace=wrap;html=1;fillColor=none;rotation=-240;" vertex="1" parent="1">
          <mxGeometry x="431.5" y="286" width="46.5" height="29" as="geometry" />
        </mxCell>
        <mxCell id="GOQLkLl-hS0VJN9ZCnfr-121" value="" style="ellipse;whiteSpace=wrap;html=1;fillColor=none;rotation=38;" vertex="1" parent="1">
          <mxGeometry x="478" y="290" width="46.5" height="29" as="geometry" />
        </mxCell>
        <mxCell id="GOQLkLl-hS0VJN9ZCnfr-122" value="" style="endArrow=none;html=1;rounded=0;exitX=0.645;exitY=0.018;exitDx=0;exitDy=0;exitPerimeter=0;" edge="1" parent="1" source="GOQLkLl-hS0VJN9ZCnfr-119">
          <mxGeometry width="50" height="50" relative="1" as="geometry">
            <mxPoint x="470" y="270" as="sourcePoint" />
            <mxPoint x="580" y="310" as="targetPoint" />
          </mxGeometry>
        </mxCell>
        <mxCell id="GOQLkLl-hS0VJN9ZCnfr-123" value="Paarschirm" style="text;html=1;align=left;verticalAlign=middle;resizable=0;points=[];autosize=1;strokeColor=none;fillColor=none;" vertex="1" parent="1">
          <mxGeometry x="580" y="295" width="80" height="30" as="geometry" />
        </mxCell>
        <mxCell id="GOQLkLl-hS0VJN9ZCnfr-124" value="" style="ellipse;whiteSpace=wrap;html=1;aspect=fixed;fillColor=none;" vertex="1" parent="1">
          <mxGeometry x="120" y="425" width="160" height="160" as="geometry" />
        </mxCell>
        <mxCell id="GOQLkLl-hS0VJN9ZCnfr-125" value="" style="ellipse;whiteSpace=wrap;html=1;aspect=fixed;fillColor=none;" vertex="1" parent="1">
          <mxGeometry x="136.25" y="441.25" width="127.5" height="127.5" as="geometry" />
        </mxCell>
        <mxCell id="GOQLkLl-hS0VJN9ZCnfr-126" value="" style="ellipse;whiteSpace=wrap;html=1;aspect=fixed;fillColor=#00FFFF;" vertex="1" parent="1">
          <mxGeometry x="160" y="465" width="20" height="20" as="geometry" />
        </mxCell>
        <mxCell id="GOQLkLl-hS0VJN9ZCnfr-127" value="" style="ellipse;whiteSpace=wrap;html=1;aspect=fixed;fillColor=#00FFFF;" vertex="1" parent="1">
          <mxGeometry x="178" y="474" width="20" height="20" as="geometry" />
        </mxCell>
        <mxCell id="GOQLkLl-hS0VJN9ZCnfr-128" value="" style="ellipse;whiteSpace=wrap;html=1;aspect=fixed;fillColor=light-dark(#FFFFFF,#663300);" vertex="1" parent="1">
          <mxGeometry x="220" y="525" width="20" height="20" as="geometry" />
        </mxCell>
        <mxCell id="GOQLkLl-hS0VJN9ZCnfr-129" value="" style="ellipse;whiteSpace=wrap;html=1;aspect=fixed;fillColor=light-dark(#FFFFFF,#663300);" vertex="1" parent="1">
          <mxGeometry x="202" y="515" width="20" height="20" as="geometry" />
        </mxCell>
        <mxCell id="GOQLkLl-hS0VJN9ZCnfr-130" value="" style="ellipse;whiteSpace=wrap;html=1;aspect=fixed;fillColor=#80FF00;" vertex="1" parent="1">
          <mxGeometry x="160" y="525" width="20" height="20" as="geometry" />
        </mxCell>
        <mxCell id="GOQLkLl-hS0VJN9ZCnfr-131" value="" style="ellipse;whiteSpace=wrap;html=1;aspect=fixed;fillColor=#80FF00;" vertex="1" parent="1">
          <mxGeometry x="169" y="507" width="20" height="20" as="geometry" />
        </mxCell>
        <mxCell id="GOQLkLl-hS0VJN9ZCnfr-132" value="" style="ellipse;whiteSpace=wrap;html=1;aspect=fixed;fillColor=#CC6600;" vertex="1" parent="1">
          <mxGeometry x="212" y="485" width="20" height="20" as="geometry" />
        </mxCell>
        <mxCell id="GOQLkLl-hS0VJN9ZCnfr-133" value="" style="ellipse;whiteSpace=wrap;html=1;aspect=fixed;fillColor=#CC6600;" vertex="1" parent="1">
          <mxGeometry x="221" y="467" width="20" height="20" as="geometry" />
        </mxCell>
        <mxCell id="GOQLkLl-hS0VJN9ZCnfr-134" value="" style="ellipse;whiteSpace=wrap;html=1;aspect=fixed;fillColor=#990000;strokeColor=#990000;" vertex="1" parent="1">
          <mxGeometry x="165" y="470" width="10" height="10" as="geometry" />
        </mxCell>
        <mxCell id="GOQLkLl-hS0VJN9ZCnfr-135" value="" style="verticalLabelPosition=bottom;verticalAlign=top;html=1;shape=mxgraph.basic.pie;startAngle=0.375;endAngle=0.8738870465116885;fillColor=#FFFFFF;rotation=-135;" vertex="1" parent="1">
          <mxGeometry x="178" y="474" width="20" height="20" as="geometry" />
        </mxCell>
        <mxCell id="GOQLkLl-hS0VJN9ZCnfr-136" value="" style="verticalLabelPosition=bottom;verticalAlign=top;html=1;shape=mxgraph.basic.pie;startAngle=0.375;endAngle=0.8738870465116885;fillColor=#FFFFFF;rotation=-135;" vertex="1" parent="1">
          <mxGeometry x="212" y="485" width="20" height="20" as="geometry" />
        </mxCell>
        <mxCell id="GOQLkLl-hS0VJN9ZCnfr-137" value="" style="ellipse;whiteSpace=wrap;html=1;aspect=fixed;fillColor=#990000;strokeColor=#990000;" vertex="1" parent="1">
          <mxGeometry x="183" y="479" width="10" height="10" as="geometry" />
        </mxCell>
        <mxCell id="GOQLkLl-hS0VJN9ZCnfr-138" value="" style="ellipse;whiteSpace=wrap;html=1;aspect=fixed;fillColor=#990000;strokeColor=#990000;" vertex="1" parent="1">
          <mxGeometry x="226" y="472" width="10" height="10" as="geometry" />
        </mxCell>
        <mxCell id="GOQLkLl-hS0VJN9ZCnfr-139" value="" style="ellipse;whiteSpace=wrap;html=1;aspect=fixed;fillColor=#990000;strokeColor=#990000;" vertex="1" parent="1">
          <mxGeometry x="217" y="490" width="10" height="10" as="geometry" />
        </mxCell>
        <mxCell id="GOQLkLl-hS0VJN9ZCnfr-140" value="" style="ellipse;whiteSpace=wrap;html=1;aspect=fixed;fillColor=#990000;strokeColor=#990000;" vertex="1" parent="1">
          <mxGeometry x="165" y="530" width="10" height="10" as="geometry" />
        </mxCell>
        <mxCell id="GOQLkLl-hS0VJN9ZCnfr-141" value="" style="verticalLabelPosition=bottom;verticalAlign=top;html=1;shape=mxgraph.basic.pie;startAngle=0.375;endAngle=0.8738870465116885;fillColor=#FFFFFF;rotation=-135;" vertex="1" parent="1">
          <mxGeometry x="169" y="507" width="20" height="20" as="geometry" />
        </mxCell>
        <mxCell id="GOQLkLl-hS0VJN9ZCnfr-142" value="" style="verticalLabelPosition=bottom;verticalAlign=top;html=1;shape=mxgraph.basic.pie;startAngle=0.375;endAngle=0.8738870465116885;fillColor=#FFFFFF;rotation=-135;" vertex="1" parent="1">
          <mxGeometry x="202" y="515" width="20" height="20" as="geometry" />
        </mxCell>
        <mxCell id="GOQLkLl-hS0VJN9ZCnfr-143" value="" style="ellipse;whiteSpace=wrap;html=1;aspect=fixed;fillColor=#990000;strokeColor=#990000;" vertex="1" parent="1">
          <mxGeometry x="174" y="512" width="10" height="10" as="geometry" />
        </mxCell>
        <mxCell id="GOQLkLl-hS0VJN9ZCnfr-144" value="" style="ellipse;whiteSpace=wrap;html=1;aspect=fixed;fillColor=#990000;strokeColor=#990000;" vertex="1" parent="1">
          <mxGeometry x="207" y="520" width="10" height="10" as="geometry" />
        </mxCell>
        <mxCell id="GOQLkLl-hS0VJN9ZCnfr-145" value="" style="ellipse;whiteSpace=wrap;html=1;aspect=fixed;fillColor=#990000;strokeColor=#990000;" vertex="1" parent="1">
          <mxGeometry x="225" y="530" width="10" height="10" as="geometry" />
        </mxCell>
        <mxCell id="GOQLkLl-hS0VJN9ZCnfr-146" value="" style="endArrow=none;html=1;rounded=0;" edge="1" parent="1">
          <mxGeometry width="50" height="50" relative="1" as="geometry">
            <mxPoint x="231" y="477" as="sourcePoint" />
            <mxPoint x="300" y="460" as="targetPoint" />
          </mxGeometry>
        </mxCell>
        <mxCell id="GOQLkLl-hS0VJN9ZCnfr-147" value="Kupferleiter" style="text;html=1;align=center;verticalAlign=middle;resizable=0;points=[];autosize=1;strokeColor=none;fillColor=none;" vertex="1" parent="1">
          <mxGeometry x="293" y="444" width="80" height="30" as="geometry" />
        </mxCell>
        <mxCell id="GOQLkLl-hS0VJN9ZCnfr-148" value="" style="endArrow=none;html=1;rounded=0;exitX=0.863;exitY=0.628;exitDx=0;exitDy=0;exitPerimeter=0;" edge="1" parent="1">
          <mxGeometry width="50" height="50" relative="1" as="geometry">
            <mxPoint x="238.26000000000005" y="477.56" as="sourcePoint" />
            <mxPoint x="300" y="480" as="targetPoint" />
          </mxGeometry>
        </mxCell>
        <mxCell id="GOQLkLl-hS0VJN9ZCnfr-149" value="Adernisolierung" style="text;html=1;align=center;verticalAlign=middle;resizable=0;points=[];autosize=1;strokeColor=none;fillColor=none;" vertex="1" parent="1">
          <mxGeometry x="290" y="462" width="110" height="30" as="geometry" />
        </mxCell>
        <mxCell id="GOQLkLl-hS0VJN9ZCnfr-150" value="" style="endArrow=none;html=1;rounded=0;" edge="1" parent="1">
          <mxGeometry width="50" height="50" relative="1" as="geometry">
            <mxPoint x="230" y="496" as="sourcePoint" />
            <mxPoint x="300" y="500" as="targetPoint" />
          </mxGeometry>
        </mxCell>
        <mxCell id="GOQLkLl-hS0VJN9ZCnfr-151" value="" style="endArrow=none;html=1;rounded=0;" edge="1" parent="1">
          <mxGeometry width="50" height="50" relative="1" as="geometry">
            <mxPoint x="241" y="479.5" as="sourcePoint" />
            <mxPoint x="300" y="500" as="targetPoint" />
          </mxGeometry>
        </mxCell>
        <mxCell id="GOQLkLl-hS0VJN9ZCnfr-152" value="Paar" style="text;html=1;align=left;verticalAlign=middle;resizable=0;points=[];autosize=1;strokeColor=none;fillColor=none;" vertex="1" parent="1">
          <mxGeometry x="300" y="485" width="50" height="30" as="geometry" />
        </mxCell>
        <mxCell id="GOQLkLl-hS0VJN9ZCnfr-153" value="" style="endArrow=none;html=1;rounded=0;" edge="1" parent="1">
          <mxGeometry width="50" height="50" relative="1" as="geometry">
            <mxPoint x="270" y="519.72" as="sourcePoint" />
            <mxPoint x="300" y="519.72" as="targetPoint" />
          </mxGeometry>
        </mxCell>
        <mxCell id="GOQLkLl-hS0VJN9ZCnfr-154" value="Kabelmantel" style="text;html=1;align=left;verticalAlign=middle;resizable=0;points=[];autosize=1;strokeColor=none;fillColor=none;" vertex="1" parent="1">
          <mxGeometry x="300" y="505" width="90" height="30" as="geometry" />
        </mxCell>
        <mxCell id="GOQLkLl-hS0VJN9ZCnfr-155" value="" style="ellipse;whiteSpace=wrap;html=1;aspect=fixed;fillColor=none;" vertex="1" parent="1">
          <mxGeometry x="400" y="425" width="160" height="160" as="geometry" />
        </mxCell>
        <mxCell id="GOQLkLl-hS0VJN9ZCnfr-156" value="" style="ellipse;whiteSpace=wrap;html=1;aspect=fixed;fillColor=none;" vertex="1" parent="1">
          <mxGeometry x="416.25" y="441.25" width="127.5" height="127.5" as="geometry" />
        </mxCell>
        <mxCell id="GOQLkLl-hS0VJN9ZCnfr-157" value="" style="ellipse;whiteSpace=wrap;html=1;aspect=fixed;fillColor=#00FFFF;" vertex="1" parent="1">
          <mxGeometry x="440" y="465" width="20" height="20" as="geometry" />
        </mxCell>
        <mxCell id="GOQLkLl-hS0VJN9ZCnfr-158" value="" style="ellipse;whiteSpace=wrap;html=1;aspect=fixed;fillColor=#00FFFF;" vertex="1" parent="1">
          <mxGeometry x="458" y="474" width="20" height="20" as="geometry" />
        </mxCell>
        <mxCell id="GOQLkLl-hS0VJN9ZCnfr-159" value="" style="ellipse;whiteSpace=wrap;html=1;aspect=fixed;fillColor=light-dark(#FFFFFF,#663300);" vertex="1" parent="1">
          <mxGeometry x="500" y="525" width="20" height="20" as="geometry" />
        </mxCell>
        <mxCell id="GOQLkLl-hS0VJN9ZCnfr-160" value="" style="ellipse;whiteSpace=wrap;html=1;aspect=fixed;fillColor=light-dark(#FFFFFF,#663300);" vertex="1" parent="1">
          <mxGeometry x="482" y="515" width="20" height="20" as="geometry" />
        </mxCell>
        <mxCell id="GOQLkLl-hS0VJN9ZCnfr-161" value="" style="ellipse;whiteSpace=wrap;html=1;aspect=fixed;fillColor=#80FF00;" vertex="1" parent="1">
          <mxGeometry x="440" y="525" width="20" height="20" as="geometry" />
        </mxCell>
        <mxCell id="GOQLkLl-hS0VJN9ZCnfr-162" value="" style="ellipse;whiteSpace=wrap;html=1;aspect=fixed;fillColor=#80FF00;" vertex="1" parent="1">
          <mxGeometry x="449" y="507" width="20" height="20" as="geometry" />
        </mxCell>
        <mxCell id="GOQLkLl-hS0VJN9ZCnfr-163" value="" style="ellipse;whiteSpace=wrap;html=1;aspect=fixed;fillColor=#CC6600;" vertex="1" parent="1">
          <mxGeometry x="492" y="485" width="20" height="20" as="geometry" />
        </mxCell>
        <mxCell id="GOQLkLl-hS0VJN9ZCnfr-164" value="" style="ellipse;whiteSpace=wrap;html=1;aspect=fixed;fillColor=#CC6600;" vertex="1" parent="1">
          <mxGeometry x="501" y="467" width="20" height="20" as="geometry" />
        </mxCell>
        <mxCell id="GOQLkLl-hS0VJN9ZCnfr-165" value="" style="ellipse;whiteSpace=wrap;html=1;aspect=fixed;fillColor=#990000;strokeColor=#990000;" vertex="1" parent="1">
          <mxGeometry x="445" y="470" width="10" height="10" as="geometry" />
        </mxCell>
        <mxCell id="GOQLkLl-hS0VJN9ZCnfr-166" value="" style="verticalLabelPosition=bottom;verticalAlign=top;html=1;shape=mxgraph.basic.pie;startAngle=0.375;endAngle=0.8738870465116885;fillColor=#FFFFFF;rotation=-135;" vertex="1" parent="1">
          <mxGeometry x="458" y="474" width="20" height="20" as="geometry" />
        </mxCell>
        <mxCell id="GOQLkLl-hS0VJN9ZCnfr-167" value="" style="verticalLabelPosition=bottom;verticalAlign=top;html=1;shape=mxgraph.basic.pie;startAngle=0.375;endAngle=0.8738870465116885;fillColor=#FFFFFF;rotation=-135;" vertex="1" parent="1">
          <mxGeometry x="492" y="485" width="20" height="20" as="geometry" />
        </mxCell>
        <mxCell id="GOQLkLl-hS0VJN9ZCnfr-168" value="" style="ellipse;whiteSpace=wrap;html=1;aspect=fixed;fillColor=#990000;strokeColor=#990000;" vertex="1" parent="1">
          <mxGeometry x="463" y="479" width="10" height="10" as="geometry" />
        </mxCell>
        <mxCell id="GOQLkLl-hS0VJN9ZCnfr-169" value="" style="ellipse;whiteSpace=wrap;html=1;aspect=fixed;fillColor=#990000;strokeColor=#990000;" vertex="1" parent="1">
          <mxGeometry x="506" y="472" width="10" height="10" as="geometry" />
        </mxCell>
        <mxCell id="GOQLkLl-hS0VJN9ZCnfr-170" value="" style="ellipse;whiteSpace=wrap;html=1;aspect=fixed;fillColor=#990000;strokeColor=#990000;" vertex="1" parent="1">
          <mxGeometry x="497" y="490" width="10" height="10" as="geometry" />
        </mxCell>
        <mxCell id="GOQLkLl-hS0VJN9ZCnfr-171" value="" style="ellipse;whiteSpace=wrap;html=1;aspect=fixed;fillColor=#990000;strokeColor=#990000;" vertex="1" parent="1">
          <mxGeometry x="445" y="530" width="10" height="10" as="geometry" />
        </mxCell>
        <mxCell id="GOQLkLl-hS0VJN9ZCnfr-172" value="" style="verticalLabelPosition=bottom;verticalAlign=top;html=1;shape=mxgraph.basic.pie;startAngle=0.375;endAngle=0.8738870465116885;fillColor=#FFFFFF;rotation=-135;" vertex="1" parent="1">
          <mxGeometry x="449" y="507" width="20" height="20" as="geometry" />
        </mxCell>
        <mxCell id="GOQLkLl-hS0VJN9ZCnfr-173" value="" style="verticalLabelPosition=bottom;verticalAlign=top;html=1;shape=mxgraph.basic.pie;startAngle=0.375;endAngle=0.8738870465116885;fillColor=#FFFFFF;rotation=-135;" vertex="1" parent="1">
          <mxGeometry x="482" y="515" width="20" height="20" as="geometry" />
        </mxCell>
        <mxCell id="GOQLkLl-hS0VJN9ZCnfr-174" value="" style="ellipse;whiteSpace=wrap;html=1;aspect=fixed;fillColor=#990000;strokeColor=#990000;" vertex="1" parent="1">
          <mxGeometry x="454" y="512" width="10" height="10" as="geometry" />
        </mxCell>
        <mxCell id="GOQLkLl-hS0VJN9ZCnfr-175" value="" style="ellipse;whiteSpace=wrap;html=1;aspect=fixed;fillColor=#990000;strokeColor=#990000;" vertex="1" parent="1">
          <mxGeometry x="487" y="520" width="10" height="10" as="geometry" />
        </mxCell>
        <mxCell id="GOQLkLl-hS0VJN9ZCnfr-176" value="" style="ellipse;whiteSpace=wrap;html=1;aspect=fixed;fillColor=#990000;strokeColor=#990000;" vertex="1" parent="1">
          <mxGeometry x="505" y="530" width="10" height="10" as="geometry" />
        </mxCell>
        <mxCell id="GOQLkLl-hS0VJN9ZCnfr-177" value="" style="endArrow=none;html=1;rounded=0;" edge="1" parent="1">
          <mxGeometry width="50" height="50" relative="1" as="geometry">
            <mxPoint x="511" y="477" as="sourcePoint" />
            <mxPoint x="580" y="455" as="targetPoint" />
          </mxGeometry>
        </mxCell>
        <mxCell id="GOQLkLl-hS0VJN9ZCnfr-178" value="Kupferleiter" style="text;html=1;align=center;verticalAlign=middle;resizable=0;points=[];autosize=1;strokeColor=none;fillColor=none;" vertex="1" parent="1">
          <mxGeometry x="573" y="436" width="80" height="30" as="geometry" />
        </mxCell>
        <mxCell id="GOQLkLl-hS0VJN9ZCnfr-179" value="" style="endArrow=none;html=1;rounded=0;exitX=0.863;exitY=0.628;exitDx=0;exitDy=0;exitPerimeter=0;" edge="1" parent="1">
          <mxGeometry width="50" height="50" relative="1" as="geometry">
            <mxPoint x="518.26" y="477.56" as="sourcePoint" />
            <mxPoint x="580" y="473" as="targetPoint" />
          </mxGeometry>
        </mxCell>
        <mxCell id="GOQLkLl-hS0VJN9ZCnfr-180" value="Adernisolierung" style="text;html=1;align=center;verticalAlign=middle;resizable=0;points=[];autosize=1;strokeColor=none;fillColor=none;" vertex="1" parent="1">
          <mxGeometry x="570" y="456" width="110" height="30" as="geometry" />
        </mxCell>
        <mxCell id="GOQLkLl-hS0VJN9ZCnfr-181" value="" style="endArrow=none;html=1;rounded=0;" edge="1" parent="1">
          <mxGeometry width="50" height="50" relative="1" as="geometry">
            <mxPoint x="510" y="496" as="sourcePoint" />
            <mxPoint x="580" y="495" as="targetPoint" />
          </mxGeometry>
        </mxCell>
        <mxCell id="GOQLkLl-hS0VJN9ZCnfr-182" value="" style="endArrow=none;html=1;rounded=0;" edge="1" parent="1">
          <mxGeometry width="50" height="50" relative="1" as="geometry">
            <mxPoint x="521" y="479.5" as="sourcePoint" />
            <mxPoint x="580" y="495" as="targetPoint" />
          </mxGeometry>
        </mxCell>
        <mxCell id="GOQLkLl-hS0VJN9ZCnfr-183" value="Paar" style="text;html=1;align=left;verticalAlign=middle;resizable=0;points=[];autosize=1;strokeColor=none;fillColor=none;" vertex="1" parent="1">
          <mxGeometry x="580" y="477" width="50" height="30" as="geometry" />
        </mxCell>
        <mxCell id="GOQLkLl-hS0VJN9ZCnfr-184" value="" style="endArrow=none;html=1;rounded=0;" edge="1" parent="1">
          <mxGeometry width="50" height="50" relative="1" as="geometry">
            <mxPoint x="550" y="512" as="sourcePoint" />
            <mxPoint x="580" y="512" as="targetPoint" />
          </mxGeometry>
        </mxCell>
        <mxCell id="GOQLkLl-hS0VJN9ZCnfr-185" value="Kabelmantel" style="text;html=1;align=left;verticalAlign=middle;resizable=0;points=[];autosize=1;strokeColor=none;fillColor=none;" vertex="1" parent="1">
          <mxGeometry x="580" y="497" width="90" height="30" as="geometry" />
        </mxCell>
        <mxCell id="GOQLkLl-hS0VJN9ZCnfr-186" value="" style="ellipse;whiteSpace=wrap;html=1;fillColor=none;rotation=30;" vertex="1" parent="1">
          <mxGeometry x="435.75" y="464.73" width="46.5" height="29" as="geometry" />
        </mxCell>
        <mxCell id="GOQLkLl-hS0VJN9ZCnfr-187" value="" style="ellipse;whiteSpace=wrap;html=1;fillColor=none;rotation=-240;" vertex="1" parent="1">
          <mxGeometry x="482.25" y="472" width="46.5" height="29" as="geometry" />
        </mxCell>
        <mxCell id="GOQLkLl-hS0VJN9ZCnfr-188" value="" style="ellipse;whiteSpace=wrap;html=1;fillColor=none;rotation=-240;" vertex="1" parent="1">
          <mxGeometry x="431.5" y="511" width="46.5" height="29" as="geometry" />
        </mxCell>
        <mxCell id="GOQLkLl-hS0VJN9ZCnfr-189" value="" style="ellipse;whiteSpace=wrap;html=1;fillColor=none;rotation=38;" vertex="1" parent="1">
          <mxGeometry x="478" y="515" width="46.5" height="29" as="geometry" />
        </mxCell>
        <mxCell id="GOQLkLl-hS0VJN9ZCnfr-190" value="" style="endArrow=none;html=1;rounded=0;exitX=0.645;exitY=0.018;exitDx=0;exitDy=0;exitPerimeter=0;" edge="1" parent="1" source="GOQLkLl-hS0VJN9ZCnfr-187">
          <mxGeometry width="50" height="50" relative="1" as="geometry">
            <mxPoint x="470" y="495" as="sourcePoint" />
            <mxPoint x="580" y="535" as="targetPoint" />
          </mxGeometry>
        </mxCell>
        <mxCell id="GOQLkLl-hS0VJN9ZCnfr-191" value="Paarschirm" style="text;html=1;align=left;verticalAlign=middle;resizable=0;points=[];autosize=1;strokeColor=none;fillColor=none;" vertex="1" parent="1">
          <mxGeometry x="580" y="520" width="80" height="30" as="geometry" />
        </mxCell>
        <mxCell id="GOQLkLl-hS0VJN9ZCnfr-192" value="&lt;b&gt;&lt;font style=&quot;font-size: 16px;&quot;&gt;UTP&lt;/font&gt;&lt;/b&gt;" style="text;html=1;align=center;verticalAlign=middle;resizable=0;points=[];autosize=1;strokeColor=none;fillColor=none;" vertex="1" parent="1">
          <mxGeometry x="170" y="170" width="60" height="30" as="geometry" />
        </mxCell>
        <mxCell id="GOQLkLl-hS0VJN9ZCnfr-193" value="&lt;b&gt;&lt;font style=&quot;font-size: 16px;&quot;&gt;STP&lt;/font&gt;&lt;/b&gt;" style="text;html=1;align=center;verticalAlign=middle;resizable=0;points=[];autosize=1;strokeColor=none;fillColor=none;" vertex="1" parent="1">
          <mxGeometry x="455" y="170" width="50" height="30" as="geometry" />
        </mxCell>
        <mxCell id="GOQLkLl-hS0VJN9ZCnfr-194" value="&lt;b&gt;&lt;font style=&quot;font-size: 16px;&quot;&gt;S/UTP&lt;/font&gt;&lt;/b&gt;" style="text;html=1;align=center;verticalAlign=middle;resizable=0;points=[];autosize=1;strokeColor=none;fillColor=none;" vertex="1" parent="1">
          <mxGeometry x="165" y="395" width="70" height="30" as="geometry" />
        </mxCell>
        <mxCell id="GOQLkLl-hS0VJN9ZCnfr-195" value="&lt;b&gt;&lt;font style=&quot;font-size: 16px;&quot;&gt;S/STP&lt;/font&gt;&lt;/b&gt;" style="text;html=1;align=center;verticalAlign=middle;resizable=0;points=[];autosize=1;strokeColor=none;fillColor=none;" vertex="1" parent="1">
          <mxGeometry x="445" y="395" width="70" height="30" as="geometry" />
        </mxCell>
        <mxCell id="GOQLkLl-hS0VJN9ZCnfr-196" value="(auch FTP oder S/FTP)" style="text;html=1;align=center;verticalAlign=middle;whiteSpace=wrap;rounded=0;" vertex="1" parent="1">
          <mxGeometry x="217" y="395" width="149" height="30" as="geometry" />
        </mxCell>
        <mxCell id="GOQLkLl-hS0VJN9ZCnfr-197" value="" style="ellipse;whiteSpace=wrap;html=1;aspect=fixed;fillColor=none;" vertex="1" parent="1">
          <mxGeometry x="140.63" y="445.63" width="118.75" height="118.75" as="geometry" />
        </mxCell>
        <mxCell id="GOQLkLl-hS0VJN9ZCnfr-198" value="" style="endArrow=none;html=1;rounded=0;exitX=0.986;exitY=0.672;exitDx=0;exitDy=0;exitPerimeter=0;" edge="1" parent="1">
          <mxGeometry width="50" height="50" relative="1" as="geometry">
            <mxPoint x="258.7175" y="523.43" as="sourcePoint" />
            <mxPoint x="300" y="540" as="targetPoint" />
          </mxGeometry>
        </mxCell>
        <mxCell id="GOQLkLl-hS0VJN9ZCnfr-199" value="Gesamtschirm" style="text;html=1;align=left;verticalAlign=middle;resizable=0;points=[];autosize=1;strokeColor=none;fillColor=none;" vertex="1" parent="1">
          <mxGeometry x="300" y="525" width="100" height="30" as="geometry" />
        </mxCell>
        <mxCell id="GOQLkLl-hS0VJN9ZCnfr-200" value="" style="ellipse;whiteSpace=wrap;html=1;aspect=fixed;fillColor=none;" vertex="1" parent="1">
          <mxGeometry x="420.62" y="445.63" width="118.75" height="118.75" as="geometry" />
        </mxCell>
        <mxCell id="GOQLkLl-hS0VJN9ZCnfr-202" value="" style="endArrow=none;html=1;rounded=0;exitX=0.986;exitY=0.672;exitDx=0;exitDy=0;exitPerimeter=0;" edge="1" parent="1">
          <mxGeometry width="50" height="50" relative="1" as="geometry">
            <mxPoint x="531.7175" y="538.43" as="sourcePoint" />
            <mxPoint x="580" y="555" as="targetPoint" />
          </mxGeometry>
        </mxCell>
        <mxCell id="GOQLkLl-hS0VJN9ZCnfr-203" value="Gesamtschirm" style="text;html=1;align=left;verticalAlign=middle;resizable=0;points=[];autosize=1;strokeColor=none;fillColor=none;" vertex="1" parent="1">
          <mxGeometry x="580" y="540" width="100" height="30" as="geometry" />
        </mxCell>
      </root>
    </mxGraphModel>
  </diagram>
</mxfile>
